<svg xmlns="http://www.w3.org/2000/svg" viewBox="0 0 400 300" preserveAspectRatio="xMidYMid meet" role="img" aria-label="입바닥">
<defs>
  <linearGradient id="bg" x1="0" y1="0" x2="1" y2="1"><stop stop-color="#fffaf9"/><stop offset="1" stop-color="#f2e4e2"/></linearGradient>
  <linearGradient id="muc" x1="0" y1="0" x2="1" y2="1"><stop stop-color="#f6b3b7"/><stop offset="1" stop-color="#d96b79"/></linearGradient>
  <filter id="shadow"><feDropShadow dx="0" dy="6" stdDeviation="7" flood-color="#733948" flood-opacity=".16"/></filter>
</defs>
<rect width="400" height="300" rx="34" fill="url(#bg)"/>
<ellipse cx="200" cy="153" rx="150" ry="113" fill="#efadb0" stroke="#d27d88" stroke-width="3" filter="url(#shadow)"/>
<path d="M72 130 Q200 55 328 130 Q308 170 200 175 Q92 170 72 130Z" fill="#7e3442"/>
<rect x="91" y="91" width="32" height="42" rx="9" fill="#fffdf9" stroke="#d9dde1" stroke-width="2"/><rect x="127" y="78" width="32" height="42" rx="9" fill="#fffdf9" stroke="#d9dde1" stroke-width="2"/><rect x="164" y="72" width="32" height="42" rx="9" fill="#fffdf9" stroke="#d9dde1" stroke-width="2"/><rect x="202" y="78" width="32" height="42" rx="9" fill="#fffdf9" stroke="#d9dde1" stroke-width="2"/><rect x="238" y="91" width="32" height="42" rx="9" fill="#fffdf9" stroke="#d9dde1" stroke-width="2"/><rect x="91" y="169" width="32" height="38" rx="9" fill="#fffdf9" stroke="#d9dde1" stroke-width="2"/><rect x="127" y="181" width="32" height="38" rx="9" fill="#fffdf9" stroke="#d9dde1" stroke-width="2"/><rect x="164" y="187" width="32" height="38" rx="9" fill="#fffdf9" stroke="#d9dde1" stroke-width="2"/><rect x="202" y="181" width="32" height="38" rx="9" fill="#fffdf9" stroke="#d9dde1" stroke-width="2"/><rect x="238" y="169" width="32" height="38" rx="9" fill="#fffdf9" stroke="#d9dde1" stroke-width="2"/>
<path d="M118 178 Q200 126 282 178 Q264 231 200 242 Q136 231 118 178Z" fill="#efa5ad" stroke="#c76676" stroke-width="3"/>
<path d="M200 142 L200 226" stroke="#ae4257" stroke-width="5" stroke-linecap="round"/>
<path d="M142 190 Q171 165 200 190 Q229 165 258 190" fill="none" stroke="#c15e6e" stroke-width="4"/>
</svg>